<svg width="287" height="72" viewBox="0 0 287 72" fill="none" xmlns="http://www.w3.org/2000/svg">
<path fill-rule="evenodd" clip-rule="evenodd" d="M95.6306 0.000366211V7.30783H101.909V12.2453H95.6306V23.7842C95.6306 26.9506 96.4891 28.6145 99.0114 28.6145C100.246 28.6145 100.836 28.5073 101.588 28.292L101.695 33.3367C100.728 33.7123 99.0114 34.0348 96.9188 34.0348C94.5036 34.0348 92.4641 33.1763 91.23 31.8341C89.8346 30.3315 89.1896 27.9695 89.1896 24.5346V12.2453H85.4328V7.30783H89.1896V1.87862L95.6306 0.000366211Z" fill="#131415"/>
<path fill-rule="evenodd" clip-rule="evenodd" d="M109.106 20.4028C109.106 25.4484 111.574 29.2589 115.6 29.2589C119.357 29.2589 121.986 25.5556 121.986 20.2956C121.986 16.2166 120.162 11.5475 115.653 11.5475C110.984 11.5475 109.106 16.0553 109.106 20.4028ZM128.802 20.1352C128.802 29.7418 122.04 34.0352 115.385 34.0352C107.979 34.0352 102.29 28.9364 102.29 20.5649C102.29 11.9772 107.925 6.71722 115.815 6.71722C123.596 6.71722 128.802 12.1916 128.802 20.1352Z" fill="#131415"/>
<path fill-rule="evenodd" clip-rule="evenodd" d="M158.918 17.6121C158.972 15.1969 157.898 11.226 153.498 11.226C149.419 11.226 147.702 14.9285 147.433 17.6121H158.918ZM147.433 22.228C147.593 26.9511 151.297 28.9906 155.484 28.9906C158.542 28.9906 160.743 28.5609 162.728 27.8096L163.694 32.3714C161.44 33.2831 158.328 34.0353 154.57 34.0353C146.091 34.0353 141.1 28.7753 141.1 20.7785C141.1 13.5331 145.501 6.71735 153.873 6.71735C162.407 6.71735 165.144 13.6943 165.144 19.4381C165.144 20.6713 165.036 21.637 164.929 22.228H147.433Z" fill="#131415"/>
<path fill-rule="evenodd" clip-rule="evenodd" d="M202.819 20.4028C202.819 25.4484 205.29 29.2589 209.314 29.2589C213.071 29.2589 215.701 25.5556 215.701 20.2956C215.701 16.2166 213.875 11.5475 209.368 11.5475C204.699 11.5475 202.819 16.0553 202.819 20.4028ZM222.516 20.1352C222.516 29.7418 215.755 34.0352 209.099 34.0352C201.693 34.0352 196.004 28.9364 196.004 20.5649C196.004 11.9772 201.639 6.71722 209.528 6.71722C217.31 6.71722 222.516 12.1916 222.516 20.1352Z" fill="#131415"/>
<path fill-rule="evenodd" clip-rule="evenodd" d="M89.1896 71.4096H91.7128V45.6474H89.1896V71.4096Z" fill="#131415"/>
<path fill-rule="evenodd" clip-rule="evenodd" d="M97.1402 51.8196C97.1402 49.4585 97.0339 47.6883 96.9258 45.647H99.2878L99.5022 50.3179H99.6094C101.005 47.419 104.224 45.0579 108.465 45.0579C110.933 45.0579 117.427 46.2929 117.427 55.9517V71.4092H114.905V56.167C114.905 51.4971 113.081 47.2577 107.767 47.2577C104.118 47.2577 101.058 49.8341 100.038 53.1618C99.8238 53.805 99.6635 54.6644 99.6635 55.4689V71.4092H97.1402V51.8196Z" fill="#131415"/>
<path fill-rule="evenodd" clip-rule="evenodd" d="M153.074 56.22C153.127 52.6239 151.626 47.1503 145.399 47.1503C139.711 47.1503 137.242 52.2491 136.812 56.22H153.074ZM136.652 58.2604C136.652 66.5247 141.16 69.7452 146.473 69.7452C150.23 69.7452 152.162 68.9939 153.61 68.2957L154.255 70.3361C153.288 70.8721 150.659 72 146.15 72C138.744 72 134.129 66.5787 134.129 59.0108C134.129 50.424 139.067 45.0577 145.721 45.0577C154.148 45.0577 155.758 53.0013 155.758 56.7037C155.758 57.4019 155.758 57.8298 155.65 58.2604H136.652Z" fill="#131415"/>
<path fill-rule="evenodd" clip-rule="evenodd" d="M160.32 53.376C160.32 50.8005 160.212 48.116 160.105 45.6468H162.466L162.573 50.8537H162.682C163.809 47.6341 166.491 45.0577 170.033 45.0577C170.356 45.0577 170.731 45.1108 171.054 45.164V47.6341C170.678 47.526 170.302 47.526 169.819 47.526C166.278 47.526 163.754 50.5861 163.057 54.7174C162.949 55.4687 162.842 56.3272 162.842 57.1866V71.409H160.32V53.376Z" fill="#131415"/>
<path fill-rule="evenodd" clip-rule="evenodd" d="M188.28 57.6156C182.645 57.4543 175.238 58.3128 175.238 64.4854C175.238 68.1896 177.707 69.8535 180.39 69.8535C184.685 69.8535 187.099 67.223 188.011 64.7007C188.173 64.1638 188.28 63.6269 188.28 63.144V57.6156ZM190.802 65.2907C190.802 67.3302 190.909 69.4229 191.178 71.4092H188.871L188.494 67.7068H188.333C187.099 69.6913 184.255 71.9993 180.122 71.9993C174.971 71.9993 172.555 68.3491 172.555 64.9142C172.555 58.9578 177.814 55.3617 188.28 55.4689V54.8257C188.28 52.2484 187.798 47.1496 181.679 47.2046C179.425 47.2046 177.063 47.7946 175.238 49.136L174.434 47.2577C176.741 45.702 179.64 45.0579 181.948 45.0579C189.408 45.0579 190.802 50.6395 190.802 55.2545V65.2907Z" fill="#131415"/>
<path fill-rule="evenodd" clip-rule="evenodd" d="M214.955 70.2822C213.827 70.8723 211.143 71.9992 207.442 71.9992C199.981 71.9992 195.043 66.5789 195.043 58.7965C195.043 50.6394 200.625 45.0578 208.353 45.0578C211.519 45.0578 214.096 45.9703 215.116 46.6676L214.202 48.7603C212.915 48.063 210.93 47.2577 208.085 47.2577C201.162 47.2577 197.62 52.5708 197.62 58.6353C197.62 65.3447 201.859 69.7453 207.817 69.7453C210.876 69.7453 212.861 68.8859 214.256 68.2959L214.955 70.2822Z" fill="#131415"/>
<path fill-rule="evenodd" clip-rule="evenodd" d="M235.614 71.4096H238.136V45.6474H235.614V71.4096Z" fill="#131415"/>
<path fill-rule="evenodd" clip-rule="evenodd" d="M244.682 45.6472L250.694 61.6407C251.713 64.1631 252.518 66.3638 253.216 68.5105H253.322C254.074 66.3638 254.986 64.1099 255.953 61.6407L262.071 45.6472H264.755L254.289 71.4094H252.035L241.946 45.6472H244.682Z" fill="#131415"/>
<path fill-rule="evenodd" clip-rule="evenodd" d="M284.183 56.22C284.238 52.6239 282.735 47.1503 276.51 47.1503C270.819 47.1503 268.353 52.2491 267.922 56.22H284.183ZM267.762 58.2604C267.762 66.5247 272.27 69.7452 277.583 69.7452C281.34 69.7452 283.272 68.9939 284.72 68.2957L285.365 70.3361C284.398 70.8721 281.768 72 277.261 72C269.854 72 265.238 66.5787 265.238 59.0108C265.238 50.424 270.177 45.0577 276.831 45.0577C285.258 45.0577 286.867 53.0013 286.867 56.7037C286.867 57.4019 286.867 57.8298 286.761 58.2604H267.762Z" fill="#131415"/>
<path fill-rule="evenodd" clip-rule="evenodd" d="M131.596 1.94189V33.4443H138.251V0.000732422L131.596 1.94189Z" fill="#131415"/>
<path fill-rule="evenodd" clip-rule="evenodd" d="M186.609 22.121C186.609 22.8183 186.555 23.4615 186.395 24.0524C185.75 26.8964 183.389 28.7215 180.706 28.7215C176.52 28.7215 174.158 25.2334 174.158 20.4563C174.158 15.5728 176.52 11.8163 180.758 11.8163C183.765 11.8163 185.858 13.909 186.448 16.4854C186.555 17.0223 186.609 17.6655 186.609 18.2024V22.121ZM193.21 0.000183105L186.609 1.92628V10.1525H186.502C185.321 8.2202 182.744 6.71759 179.149 6.71759C172.87 6.71759 167.396 11.9235 167.449 20.6716C167.449 28.7215 172.386 34.0347 178.613 34.0347C182.423 34.0347 185.589 32.2096 187.146 29.3124H187.253L187.521 33.4446H193.425C193.317 31.6735 193.21 28.7747 193.21 26.0911V0.000183105Z" fill="#131415"/>
<path fill-rule="evenodd" clip-rule="evenodd" d="M133.534 47.6883V45.647H126.182V37.9639L123.606 38.7161V45.647H119.258V47.6883H123.606V64.0025C123.606 66.632 124.035 68.7796 125.216 70.121C126.182 71.3551 127.738 71.9992 129.617 71.9992C131.173 71.9992 132.353 71.7299 133.212 71.3551L132.89 69.3688C132.247 69.585 131.28 69.7994 129.938 69.7994C127.201 69.7994 126.182 67.7067 126.182 64.4313V47.6883H133.534Z" fill="#131415"/>
<path fill-rule="evenodd" clip-rule="evenodd" d="M231.268 47.6883V45.647H223.915V37.9639L221.339 38.7161V45.647H216.992V47.6883H221.339V64.0025C221.339 66.632 221.769 68.7796 222.949 70.121C223.915 71.3551 225.472 71.9992 227.35 71.9992C228.907 71.9992 230.087 71.7299 230.945 71.3551L230.623 69.3688C229.98 69.585 229.014 69.7994 227.672 69.7994C224.935 69.7994 223.915 67.7067 223.915 64.4313V47.6883H231.268Z" fill="#131415"/>
<path fill-rule="evenodd" clip-rule="evenodd" d="M42.3138 57.6951H32.3644L45.0896 14.0771H55.0381L42.3138 57.6951ZM16.7324 57.6951L29.4576 14.0771H39.407L26.6818 57.6951H16.7324ZM65.6804 0H6.09015C2.74119 0 0 2.74119 0 6.09103V65.6813C0 69.0311 2.74119 71.7723 6.09015 71.7723H65.6804C69.0302 71.7723 71.7714 69.0311 71.7714 65.6813V6.09103C71.7714 2.74119 69.0302 0 65.6804 0Z" fill="#131415"/>
</svg>
